<?xml version="1.0" encoding="utf-8"?>
<!-- Generator: Adobe Illustrator 24.3.0, SVG Export Plug-In . SVG Version: 6.00 Build 0)  -->
<svg version="1.1" id="Layer_1" xmlns="http://www.w3.org/2000/svg" xmlns:xlink="http://www.w3.org/1999/xlink" x="0px" y="0px"
	 viewBox="0 0 307.5 258.6" style="enable-background:new 0 0 307.5 258.6;" xml:space="preserve">
<style type="text/css">
	.st0{fill:#701826;}
	.st1{fill:#F4CB24;}
	.st2{fill:#A21D21;}
	.st3{fill:#DFBD30;}
	.st4{fill:#FAE99E;}
</style>
<g id="Layer_2_1_">
	<g id="Layer_1-2">
		<path class="st0" d="M153.8,258.6c-11.7-4.9-41.7-18-53.1-33.2l1.2,8.3c0,0-26.7-7.9-44.2-40.6c-2.4-3.8-4.3-10.6-6.2-17.8
			c-0.4-1.4-0.8-2.9-0.9-3.4l-1.5-4.3l4-2.2l100.7-54.2L153.8,258.6z"/>
		<path class="st0" d="M153.8,258.6c11.7-4.9,41.7-18,53.1-33.2l-1.2,8.3c0,0,26.7-7.9,44.2-40.6c2.4-3.8,4.3-10.6,6.2-17.8
			c0.4-1.4,0.8-2.9,0.9-3.4l1.5-4.3l-3.9-2.2l-100.7-54.2V258.6z"/>
		<path class="st0" d="M156,33.3l-1.4-5.6c0,0-22,0.6-42.1,8.8c0,0-42.5-35.8-62-35.6c0,0-11.7,29.5,7.1,87.8c0,0-5.8,7.6-9,23.8
			s-14.1,17.3-14.1,17.3c2.6,2.9,6.3,4.7,10.2,4.9c0,0-4.2,15-10.7,20.2c0,0,4.3,3.7,8.4,3.7L41.2,180l10.9-7.9
			c0,0,1.5,11.1,4.5,15.5s5.6,5.7,5.6,5.7s12.1,8,14.9,16.1s11.2-16.9,11.2-16.9l58.2-85.6L156,33.3z"/>
		<path class="st1" d="M153.8,33.3v219.3c-56.2-23.4-63.2-46.6-63.2-46.6c-1.6,11.3,2.4,16.4,3.2,17.1c-1.3-0.8-20.7-14.6-31.5-32.9
			c-3.9-6.7-7.2-23.2-7.2-23.2l-8.5,3.4l2.4-15.5h-7.5c0,0,3.7-2.9,6-11.9c2.1-8.4,8.6-14.6,9.4-15.3c-5,4.5-12.9,1.7-12.9,1.7
			c2.7,0.3,6.8-9.2,9.8-14.5s9.8-9.1,9.8-9.1h-8.8c10.5-29.2,39.4-22.2,39.4-22.2c-5.1-6.7-25.3-3-25.3-3c6.8-11,27-4.6,27-4.6
			c-5.6-7.8-23.3-3.2-23.3-3.2c7.7-9,19.8-11,27.9-11.2c-7.3-1.1-14.6-1.8-22-1.9c11-6.2,16.2-6.3,16.2-6.3
			c-8.6-13.8-25.8-17-25.8-17c13.5-3.8,25.3,3.8,32.9,10.8c-10.2-14.5-30.6-34-39.9-40C62.6,7.7,66.1,4,115,41.6
			C127.2,36.3,140.4,33.4,153.8,33.3z"/>
		<path class="st2" d="M139,100.3c17.9,32.1-3.5,45.2-3.5,45.2h-8.2c0,0-22.8-2.5-40.7,6.5c-17.3,8.7-36,5-36,5l-9.2-2
			c0,0,3.7-2.9,6-11.9c1.2-4.4,3.4-8.5,6.3-12c0.9-1.1,1.9-2.2,3-3.2c-5,4.3-12.8,1.6-12.8,1.6c2.7,0.3,6.8-9.2,9.8-14.5
			s9.8-9.1,9.8-9.1h-8.9c10.4-29.2,39.4-22.2,39.4-22.2c-5.1-6.7-25.3-3-25.3-3c6.8-11,27-4.6,27-4.6c-5.6-7.8-23.3-3.2-23.3-3.2
			c7.7-9,19.8-11,27.9-11.2c-7.3-1.1-14.6-1.8-22-1.9c11-6.2,16.2-6.3,16.2-6.3c-8.6-13.8-25.8-17-25.8-17
			c13.5-3.8,25.3,3.8,32.9,10.8C91.4,32.8,71,13.3,61.7,7.3c1,0.3,5.1-2.6,53.2,34.3C114.9,41.7,116.2,59.5,139,100.3z"/>
		<path class="st3" d="M112.6,174.9c0,0-16.5,3.8-21.8-4.1c-3.3-4.9-22.5,3.4-22.5,3.4s17.6,20.6,23.7,22s13.1,4.3,13.7,11
			c1,11.3,12.1,15.6,12.1,15.6s-1.6-3.9,0.4-5.9c4.2,6.5,10.7,11.1,18.1,12.9c10.3,2.4,11.6,9.5,11.6,9.5s2.2-7.3-7.6-18
			c0,0,4.2,2,13.4,2v-32.9L112.6,174.9z"/>
		<path class="st3" d="M112.6,174.9c0,0-16.5,3.8-21.8-4.1c-3.3-4.9-22.5,3.4-22.5,3.4s17.6,20.6,23.7,22s13.1,4.3,13.7,11
			c1,11.3,12.1,15.6,12.1,15.6s-1.6-3.9,0.4-5.9c4.2,6.5,10.7,11.1,18.1,12.9c10.3,2.4,11.6,9.5,11.6,9.5s2.2-7.3-7.6-18
			c0,0,4.2,2,13.4,2v-32.9L112.6,174.9z"/>
		<path class="st2" d="M62.8,86c0,0-16.6-27.9-11.1-78.7c0,0,3.4,60.7,10.5,69.5L62.8,86z"/>
		<path class="st0" d="M154.6,32.4v-4.7c13.7,0.2,27.3,2.9,40.2,7.9c0,0,42.4-35.7,62-35.6c0,0,11.6,29.5-7.1,87.8
			c0,0,5.8,7.6,9,23.8c3.2,16.2,14.1,17.3,14.1,17.3c-2.6,2.9-6.3,4.7-10.2,4.9c0,0,4.1,15,10.7,20.2c0,0-4.4,3.7-8.4,3.7l2.1,20
			l-9.7-4.8c0,0-7.5,7.2-10.5,11.6s-25.8,7.5-28.6,15.6s0.9-8.6,0.9-8.6L160.8,106L154.6,32.4z"/>
		<path class="st1" d="M153.8,33.3v219.3c56.2-23.4,63.2-46.6,63.2-46.6c1.6,11.3-2.4,16.4-3.2,17.1c1.3-0.8,20.7-14.6,31.5-32.9
			c3.9-6.7,7.2-23.2,7.2-23.2l8.5,3.4l-2.4-15.5h7.5c0,0-3.8-2.9-6-11.9c-2.1-8.4-8.6-14.6-9.4-15.3c5,4.5,12.9,1.7,12.9,1.7
			c-2.7,0.3-6.8-9.2-9.8-14.5s-9.8-9.1-9.8-9.1h8.8c-10.4-29.2-39.4-22.2-39.4-22.2c5.1-6.7,25.4-3,25.4-3c-6.8-11-27-4.6-27-4.6
			c5.6-7.8,23.3-3.2,23.3-3.2c-7.7-9-19.8-11-27.9-11.2c7.3-1.1,14.6-1.8,22-1.9c-11-6.2-16.2-6.3-16.2-6.3
			c8.6-13.8,25.8-17,25.8-17c-13.5-3.8-25.3,3.8-32.9,10.8c10.2-14.5,30.6-34,39.9-40c-0.9,0.4-4.4-3.2-53.3,34.4
			C180.3,36.3,167.1,33.4,153.8,33.3z"/>
		<path class="st3" d="M194.9,174.9c0,0,16.5,3.8,21.8-4.1c3.3-4.9,22.5,3.4,22.5,3.4s-17.6,20.6-23.7,22s-13.1,4.3-13.7,11
			c-1,11.3-12.1,15.6-12.1,15.6s1.6-3.9-0.4-5.9c-4.2,6.5-10.7,11.1-18.1,12.9c-10.3,2.4-11.6,9.5-11.6,9.5s-2.2-7.3,7.6-18
			c0,0-4.2,2-13.4,2v-32.9L194.9,174.9z"/>
		<path class="st4" d="M153.8,171.7l-8.1,23.5l8.1,11.9c0,0,13.6-0.4,23-14c0,0,28-6.1,25.3-24.8s-21.8-22.8-21.8-22.8
			s1.8-10.1,25.8-9.4c10,0.3,12.1-10.2,12.1-10.2l9.7-3.3c0,0-8.6,0.7-17.9-5c-21-12.9-36.9,4.4-37.9,14.4s0,13.5,0,13.5
			s-0.9,8.4-1.3,9.2c-1,1.2-2,2.3-3.2,3.3L153.8,171.7z"/>
		<path class="st0" d="M230.6,119.3c-2.3,5.1-4.8,10.6-14.8,10.6c-32.7-12.2-43.7,15.6-43.7,15.6s-1.3-16.6,14.6-24.2
			c14.7-7.1,26,2.2,29.1,3C218.9,125.1,227.9,124.5,230.6,119.3z"/>
		<path class="st4" d="M140.3,158c-1.1-1-2.2-2.1-3.2-3.3c-0.4-0.8-1.3-9.2-1.3-9.2s0.9-3.4,0-13.5s-21.7-28.3-41.4-13.4
			c-7,5.3-14.1,4.2-14.1,4.2l9.4,3.2c0,0,2.1,10.5,12.1,10.2c24-0.7,25.8,9.4,25.8,9.4s-19.1,4-21.8,22.8s25.3,24.8,25.3,24.8
			c9.4,13.6,23,14,23,14l8.1-11.9l-8.1-23.5L140.3,158z"/>
		<path class="st0" d="M121.6,163.6c0,0-35.8-4.7-66.9,3.4C19.8,176.2,0,218.4,0,218.4s23.7-37.9,50.3-46.7
			c22.5-7.5,71.2-6.7,71.2-6.7L121.6,163.6z"/>
		<path class="st0" d="M121.6,169.4c0,0-34.9-4.1-64.2,17.6c-31.6,23.4-29.8,49-29.8,49s15-65.7,94-65.1L121.6,169.4z"/>
		<path class="st0" d="M121.6,175.9c0,0-47.3,13.9-64.3,50.4c0,0,3.5-35.3,64.3-52V175.9z"/>
		<path class="st0" d="M77.3,119.3c2.3,5.1,4.8,10.6,14.8,10.6c32.7-12.2,43.7,15.6,43.7,15.6s1.3-16.6-14.6-24.2
			c-14.7-7.1-26,2.2-29.1,3C89,125.1,80,124.5,77.3,119.3z"/>
		<path class="st0" d="M165.3,154.6c-1.3-0.2-11.5,1-11.5,1s-10.2-1.2-11.5-1s-6.2,6.9-6.2,7.3s6.2,4.5,6.8,5.2
			c0.2,0.3,2.5,2.7,4.7,5l1-1.5c-0.8-0.7-1.5-1.4-1.5-1.4l3.4-2.3l-1.2-6.8l-4.1-1l-3.7,3.5l-1.4-2.5l4.7-3.7l8.9,2.4l0,0l8.9-2.4
			l4.7,3.7l-1.3,2.5l-3.7-3.5l-4.1,1l-1.2,6.8l3.4,2.3c0,0-0.7,0.7-1.5,1.4l1,1.5c2.2-2.3,4.4-4.7,4.7-5c0.5-0.7,6.8-4.8,6.8-5.2
			S166.6,154.8,165.3,154.6z"/>
		<path class="st2" d="M164.5,155.9c-0.9,0-10.7,1.5-10.7,1.5s-9.8-1.5-10.7-1.5s-4.1,4.9-4.1,5.7c0,0.2,0.1,0.4,0.2,0.5
			c0.9,1.3,2.7,1.6,4,0.7c1-0.7,2.5-0.3,3.9,0.8c2.8,2.2-0.6,5.1-0.6,5.1l7.3,7.9l0,0l7.3-7.9c0,0-3.4-3-0.6-5.1
			c1.4-1.1,2.9-1.5,3.9-0.8c1.3,0.9,3.1,0.6,4-0.7c0.1-0.1,0.2-0.3,0.2-0.5C168.6,160.8,165.4,155.9,164.5,155.9z"/>
		<path class="st0" d="M166.2,185.4c-4.7-0.7-10.7-5.9-10.7-5.9v-2.6l4.6-4.8l1-3.4c-0.6,0.5-3.2,2.9-3.7,3.2
			c-1.2,0.8-2.4,0.4-2.7-1.7c-0.5-3.7-1-6.5-1-6.6l0,0c0,0.1-0.5,2.9-1,6.6c-0.3,2.1-1.5,2.5-2.7,1.7c-0.5-0.3-3.1-2.7-3.7-3.2
			l1,3.4l4.6,4.8v2.6c0,0-6,5.2-10.7,5.9c-3.5,0.5-7.1,0.7-10.6,0.7c2.8,1.9,6.1,2.8,9.5,2.5c5.2-0.7,13.6-6.1,13.6-6.2
			s8.4,5.4,13.6,6.2c3.4,0.3,6.7-0.6,9.5-2.5C173.2,186.1,169.7,185.8,166.2,185.4z"/>
		<path class="st0" d="M186,163.6c0,0,35.9-4.7,66.9,3.4c34.9,9.1,54.6,51.3,54.6,51.3s-23.7-37.9-50.3-46.7
			c-22.5-7.5-71.2-6.7-71.2-6.7V163.6z"/>
		<path class="st0" d="M186,169.4c0,0,34.9-4.1,64.2,17.6c31.6,23.4,29.8,49,29.8,49s-15-65.7-94-65.1L186,169.4z"/>
		<path class="st0" d="M186,175.9c0,0,47.3,13.9,64.3,50.4c0,0-3.5-35.3-64.3-52V175.9z"/>
		<path class="st2" d="M244.7,86c0,0,16.6-27.8,11.1-78.6c0,0-3.4,60.7-10.5,69.5L244.7,86z"/>
		<path class="st0" d="M160.8,31.1h-14.1c0,0-1.3,31.2,1.3,44.1s5.7,40.9,5.7,40.9s3.2-28,5.8-40.9S160.8,31.1,160.8,31.1z"/>
		<path class="st0" d="M166,32.5c0,0,0.4,46.3-1.9,55.2c0,0,11.4-27.3,10.6-55.2H166z"/>
		<path class="st0" d="M141.5,32.5c0,0-0.4,46.3,1.9,55.2c0,0-11.4-27.3-10.6-55.2H141.5z"/>
	</g>
</g>
</svg>
