<svg xmlns="http://www.w3.org/2000/svg" viewBox="0 0 307.54 258.58"><defs><style>.cls-1{fill:#701826;}.cls-2{fill:#f4cb24;}.cls-3{fill:#a21d21;}.cls-4{fill:#dfbd30;}.cls-5{fill:#fae99e;}</style></defs><g id="Layer_2" data-name="Layer 2"><g id="Layer_1-2" data-name="Layer 1"><path class="cls-1" d="M153.77,258.58c-11.72-4.87-41.67-18-53.07-33.22l1.19,8.3s-26.73-7.94-44.17-40.55c-2.39-3.83-4.28-10.62-6.17-17.84-.37-1.44-.76-2.93-.92-3.39l-1.48-4.26,4-2.18,100.67-54.15Z"/><path class="cls-1" d="M153.77,258.58c11.72-4.87,41.67-18,53.07-33.22l-1.19,8.3s26.73-7.94,44.17-40.55c2.39-3.83,4.28-10.62,6.17-17.84.37-1.44.76-2.93.92-3.39l1.48-4.26-3.95-2.18L153.77,111.29Z"/><path class="cls-1" d="M156,33.3l-1.37-5.58s-22,.62-42.07,8.79c0,0-42.45-35.75-62-35.62,0,0-11.65,29.46,7.09,87.83,0,0-5.75,7.63-9,23.83s-14.12,17.34-14.12,17.34a14.68,14.68,0,0,0,10.24,4.89s-4.15,15-10.71,20.22c0,0,4.35,3.68,8.43,3.68L41.15,180l10.91-7.94s1.51,11.06,4.5,15.53,5.62,5.71,5.62,5.71,12.14,8,14.95,16.08,11.25-16.88,11.25-16.88l58.18-85.64Z"/><path class="cls-2" d="M153.77,33.3V252.61c-56.16-23.36-63.19-46.56-63.19-46.56C89,217.39,93,222.42,93.76,223.17c-1.34-.82-20.73-14.59-31.5-32.9-3.91-6.66-7.23-23.2-7.23-23.2l-8.46,3.42L48.94,155H41.45s3.74-2.95,6-11.92c2.12-8.41,8.62-14.58,9.41-15.32-5,4.45-12.9,1.67-12.9,1.67,2.68.26,6.83-9.24,9.78-14.47s9.77-9.1,9.77-9.1H54.69C65.14,76.67,94.06,83.64,94.06,83.64c-5.09-6.69-25.35-3-25.35-3,6.78-11,27-4.55,27-4.55-5.62-7.77-23.31-3.21-23.31-3.21,7.67-9,19.84-11,27.91-11.21a160.28,160.28,0,0,0-22-1.92c11-6.16,16.2-6.29,16.2-6.29-8.57-13.79-25.75-17-25.75-17,13.52-3.85,25.34,3.76,32.86,10.78-10.19-14.53-30.64-34-39.91-40,.86.43,4.42-3.21,53.28,34.37A99.83,99.83,0,0,1,153.77,33.3Z"/><path class="cls-3" d="M139,100.28c17.89,32.07-3.53,45.21-3.53,45.21h-8.17S104.54,143,86.65,152c-17.3,8.67-36,5-36,5l-9.18-2s3.74-2.95,6-11.92a31.87,31.87,0,0,1,6.35-12,33.63,33.63,0,0,1,3-3.24c-5,4.33-12.8,1.58-12.8,1.58,2.67.26,6.83-9.24,9.77-14.46s9.78-9.11,9.78-9.11H54.69C65.13,76.68,94.06,83.64,94.06,83.64c-5.1-6.69-25.35-3-25.35-3,6.77-11,27-4.55,27-4.55-5.62-7.77-23.3-3.21-23.3-3.21,7.67-9,19.83-11,27.91-11.21a160.38,160.38,0,0,0-22-1.92c11-6.16,16.21-6.29,16.21-6.29-8.57-13.79-25.75-17-25.75-17,13.52-3.85,25.34,3.76,32.86,10.78C91.39,32.78,71,13.32,61.7,7.34c.95.3,5.14-2.64,53.24,34.35C114.94,41.69,116.19,59.5,139,100.28Z"/><path class="cls-4" d="M112.62,174.86s-16.51,3.75-21.78-4.11c-3.26-4.87-22.46,3.39-22.46,3.39s17.64,20.63,23.68,22,13.1,4.29,13.67,11c1,11.3,12.12,15.57,12.12,15.57s-1.63-3.94.39-5.9a30.18,30.18,0,0,0,18.13,12.91c10.32,2.39,11.59,9.5,11.59,9.5s2.23-7.27-7.61-18c0,0,4.25,2,13.42,2V190.3Z"/><path class="cls-4" d="M112.62,174.86s-16.51,3.75-21.78-4.11c-3.26-4.87-22.46,3.39-22.46,3.39s17.64,20.63,23.68,22,13.1,4.29,13.67,11c1,11.3,12.12,15.57,12.12,15.57s-1.63-3.94.39-5.9a30.18,30.18,0,0,0,18.13,12.91c10.32,2.39,11.59,9.5,11.59,9.5s2.23-7.27-7.61-18c0,0,4.25,2,13.42,2V190.3Z"/><path class="cls-5" d="M153.77,171.68v35.4s-13.57-.45-23-14c0,0-28-6.07-25.3-24.82s21.82-22.76,21.82-22.76-21.55-3.08-28.11-10.58-9.38-18.86-9.38-18.86l-5.64-4s5.33,1.47,12-1.87,18.43-5.23,26.2,0,14.19,9.9,15.13,19.94-2,15.4-2,15.4.94,8.41,1.34,9.16a29.45,29.45,0,0,0,3.17,3.29Z"/><path class="cls-1" d="M135.43,145.49s2.68-16.73-10.71-28.25-24.5-5.09-27.58-4.28-12.86,1.74-15.53-3.48a15,15,0,0,0,12.72,8.83s4.82,27.05,30.25,19.15C124.58,137.46,131,134.38,135.43,145.49Z"/><path class="cls-2" d="M96.11,116.93s1.25,13.3,11.69,18.83,22-3.93,22-3.93S127.44,106.49,96.11,116.93Z"/><path class="cls-1" d="M114.41,134.24c-2.71,0-12.5-6-5.78-22.22,0,0,11.18,0,14.76,6.69S119,134.33,114.41,134.24Z"/><ellipse class="cls-2" cx="116.45" cy="116.05" rx="1.52" ry="3.24" transform="translate(-22.45 204.01) rotate(-77.25)"/><path class="cls-1" d="M121.57,163.62s-35.85-4.68-66.94,3.44C19.75,176.16,0,218.38,0,218.38s23.74-37.85,50.34-46.73c22.51-7.52,71.23-6.69,71.23-6.69Z"/><path class="cls-1" d="M121.57,169.45S86.64,165.36,57.37,187c-31.58,23.36-29.77,49-29.77,49s15-65.66,94-65.14Z"/><path class="cls-1" d="M121.57,175.86s-47.33,13.9-64.28,50.36c0,0,3.49-35.3,64.28-52Z"/><path class="cls-3" d="M62.82,86S46.22,58.11,51.75,7.32c0,0,3.36,60.67,10.53,69.53Z"/><path class="cls-1" d="M154.63,32.4V27.72a115.53,115.53,0,0,1,40.16,7.89S237.23-.13,256.78,0c0,0,11.65,29.46-7.1,87.83,0,0,5.76,7.63,9,23.83S272.78,129,272.78,129a14.76,14.76,0,0,1-10.24,4.89s4.15,15,10.71,20.21c0,0-4.35,3.69-8.44,3.69l2.14,20L257.27,173s-7.53,7.16-10.52,11.63-25.83,7.47-28.64,15.58.86-8.56.86-8.56L160.78,106Z"/><path class="cls-2" d="M153.77,33.3V252.61C209.93,229.25,217,206.05,217,206.05c1.63,11.34-2.42,16.37-3.18,17.12,1.34-.82,20.73-14.59,31.5-32.9,3.92-6.66,7.23-23.2,7.23-23.2l8.47,3.42L258.6,155h7.5s-3.75-2.95-6-11.92c-2.13-8.41-8.62-14.58-9.42-15.32,5,4.45,12.9,1.67,12.9,1.67-2.68.26-6.83-9.24-9.78-14.47s-9.77-9.1-9.77-9.1h8.84c-10.45-29.19-39.37-22.22-39.37-22.22,5.1-6.69,25.35-3,25.35-3-6.78-11-27-4.55-27-4.55,5.63-7.77,23.31-3.21,23.31-3.21-7.67-9-19.83-11-27.91-11.21a160.28,160.28,0,0,1,22-1.92c-11-6.16-16.2-6.29-16.2-6.29,8.57-13.79,25.75-17,25.75-17-13.52-3.85-25.34,3.76-32.86,10.78,10.19-14.53,30.64-34,39.91-40-.86.43-4.41-3.21-53.28,34.37A99.83,99.83,0,0,0,153.77,33.3Z"/><path class="cls-4" d="M194.92,174.86s16.51,3.75,21.77-4.11c3.27-4.87,22.47,3.39,22.47,3.39s-17.64,20.63-23.68,22-13.1,4.29-13.67,11c-1,11.3-12.12,15.57-12.12,15.57s1.63-3.94-.39-5.9a30.18,30.18,0,0,1-18.13,12.91c-10.32,2.39-11.59,9.5-11.59,9.5s-2.23-7.27,7.6-18c0,0-4.24,2-13.41,2V190.3Z"/><path class="cls-5" d="M153.77,171.68l-8.14,23.47,8.14,11.93s13.56-.45,23-14c0,0,28-6.07,25.3-24.82s-21.82-22.76-21.82-22.76,21.55-3.08,28.11-10.58,9.38-18.86,9.38-18.86l5.64-4s-5.33,1.47-12-1.87-18.43-5.23-26.2,0-14.19,9.9-15.13,19.94,2,15.4,2,15.4-.94,8.41-1.34,9.16a29.45,29.45,0,0,1-3.17,3.29Z"/><path class="cls-1" d="M172.11,145.49s-2.68-16.73,10.71-28.25,24.5-5.09,27.58-4.28,12.85,1.74,15.53-3.48a15,15,0,0,1-12.72,8.83s-4.82,27.05-30.26,19.15C183,137.46,176.53,134.38,172.11,145.49Z"/><path class="cls-2" d="M211.43,116.93s-1.25,13.3-11.69,18.83-22-3.93-22-3.93S180.1,106.49,211.43,116.93Z"/><path class="cls-1" d="M193.13,134.24c2.71,0,12.5-6,5.78-22.22,0,0-11.18,0-14.76,6.69S188.58,134.33,193.13,134.24Z"/><ellipse class="cls-2" cx="191.09" cy="116.05" rx="3.24" ry="1.52" transform="translate(-20.9 45.04) rotate(-12.75)"/><path class="cls-1" d="M165.28,154.65c-1.34-.18-11.5,1-11.51,1s-10.17-1.2-11.52-1-6.21,6.91-6.21,7.27,6.21,4.5,6.75,5.17c.25.32,2.48,2.68,4.7,5l1-1.47c-.8-.71-1.51-1.38-1.51-1.38l3.4-2.33-1.16-6.78-4.1-1-3.66,3.48-1.35-2.5,4.73-3.67,8.93,2.42h0l8.92-2.42,4.73,3.67-1.34,2.5-3.66-3.48-4.1,1-1.16,6.78,3.39,2.33s-.7.67-1.51,1.38l1,1.47c2.21-2.32,4.45-4.68,4.7-5,.53-.67,6.75-4.81,6.75-5.17S166.62,154.83,165.28,154.65Z"/><path class="cls-3" d="M164.48,155.93c-.94,0-10.68,1.47-10.71,1.48s-9.77-1.48-10.71-1.48-4.1,4.87-4.1,5.67a1,1,0,0,0,.24.52,2.93,2.93,0,0,0,4,.67c1-.7,2.46-.26,3.86.82,2.8,2.16-.63,5.13-.63,5.13l7.32,7.94h0l7.32-7.94s-3.43-3-.63-5.13c1.4-1.08,2.9-1.52,3.86-.82a2.94,2.94,0,0,0,4-.67,1,1,0,0,0,.24-.52C168.58,160.8,165.42,155.93,164.48,155.93Z"/><path class="cls-1" d="M166.18,185.39c-4.73-.71-10.71-5.89-10.71-5.89v-2.59l4.58-4.82,1-3.35c-.56.49-3.2,2.87-3.67,3.19-1.17.81-2.38.39-2.68-1.72-.49-3.69-1-6.53-1-6.6h0c0,.07-.48,2.91-1,6.6-.29,2.11-1.51,2.53-2.67,1.72-.47-.32-3.11-2.7-3.67-3.19l1,3.35,4.58,4.82v2.59s-6,5.18-10.71,5.89a85.36,85.36,0,0,1-10.62.71,14.24,14.24,0,0,0,9.47,2.5c5.17-.71,13.55-6.15,13.56-6.16s8.39,5.45,13.56,6.16a14.24,14.24,0,0,0,9.47-2.5A85.36,85.36,0,0,1,166.18,185.39Z"/><path class="cls-1" d="M186,163.62s35.85-4.68,66.94,3.44c34.88,9.1,54.63,51.32,54.63,51.32s-23.74-37.85-50.34-46.73C234.69,164.13,186,165,186,165Z"/><path class="cls-1" d="M186,169.45s34.93-4.09,64.19,17.56c31.59,23.36,29.78,49,29.78,49s-15-65.66-94-65.14Z"/><path class="cls-1" d="M186,175.86s47.33,13.9,64.28,50.36c0,0-3.5-35.3-64.28-52Z"/><path class="cls-3" d="M244.72,86s16.6-27.85,11.07-78.64c0,0-3.36,60.67-10.53,69.53Z"/><path class="cls-1" d="M160.8,31.08H146.74S145.45,62.24,148,75.14s5.66,40.91,5.66,40.91,3.25-28,5.82-40.91S160.8,31.08,160.8,31.08Z"/><path class="cls-1" d="M166,32.45s.4,46.32-1.87,55.16c0,0,11.38-27.32,10.57-55.16Z"/><path class="cls-1" d="M141.5,32.45s-.4,46.32,1.87,55.16c0,0-11.38-27.32-10.57-55.16Z"/></g></g></svg>